<svg id="Layer_1" data-name="Layer 1" xmlns="http://www.w3.org/2000/svg" viewBox="0 0 45.47 199.56"><defs><style>.cls-1{fill:#fff;}</style></defs><path class="cls-1" d="M-65.71,519.47v20.71l6.65,3v7.44L-103.72,530v-.41L-59.06,509v7.44Zm-5.89,2.66-17.1,7.68,17.1,7.71Z" transform="translate(103.72 -351.04)"/><path class="cls-1" d="M-72.39,474.05a13.27,13.27,0,0,1,13.33,13.76v16.37h-43.76V492.24c0-7.55,5.43-12.65,11.24-12.65,4.72,0,7.87,3.28,7.87,4.91C-83.71,479.59-79.2,474.05-72.39,474.05Zm-23.75,23.29h10.91l0-5.43c0-3.39-2.3-5.89-5.43-5.89a5.64,5.64,0,0,0-5.45,5.81Zm23.29-16.59c-3.31,0-6.35,2.83-6.35,7.79l0,8.8h13.41v-8.9C-65.77,484.5-68.62,480.75-72.85,480.75Z" transform="translate(103.72 -351.04)"/><path class="cls-1" d="M-80.89,470.68a22.7,22.7,0,0,1-22.69-22.61,22.75,22.75,0,0,1,22.69-22.64A22.68,22.68,0,0,1-58.36,448.1,22.62,22.62,0,0,1-80.89,470.68Zm0-38.3A15.76,15.76,0,0,0-96.66,448.1a15.72,15.72,0,0,0,15.72,15.66A15.68,15.68,0,0,0-65.3,448.1,15.72,15.72,0,0,0-80.94,432.38Z" transform="translate(103.72 -351.04)"/><path class="cls-1" d="M-75.65,419.53h-27.17v-6.89h27.15c6,0,10.47-4.26,10.47-9.61s-4.42-9.66-10.47-9.66h-27.15v-6.93h27.17c10.05,0,17.4,7.25,17.4,16.56S-65.6,419.53-75.65,419.53Z" transform="translate(103.72 -351.04)"/><path class="cls-1" d="M-96,351v11.73h37v6.9H-96v11.72h-6.81V351Z" transform="translate(103.72 -351.04)"/></svg>