<svg id="Layer_1" data-name="Layer 1" xmlns="http://www.w3.org/2000/svg" viewBox="0 0 45.44 336.81"><defs><style>.cls-1{fill:#fff;}</style></defs><path class="cls-1" d="M-65.71,519.47v20.71l6.65,3v7.44L-103.72,530v-.41L-59.06,509v7.44Zm-5.89,2.66-17.1,7.68,17.1,7.71Z" transform="translate(103.77 -213.79)"/><path class="cls-1" d="M-80.91,510.34a22.87,22.87,0,0,1-22.67-22.58,22.09,22.09,0,0,1,6.68-15.2l5.4,4a16.21,16.21,0,0,0-5.1,11.34,16,16,0,0,0,15.71,15.5,15.94,15.94,0,0,0,15.64-15.52c0-4.48-2.23-8.34-5.21-11.35l5.54-4c3.71,3.77,6.56,8.57,6.56,15.09A22.77,22.77,0,0,1-80.91,510.34Z" transform="translate(103.77 -213.79)"/><path class="cls-1" d="M-65.71,439.54v20.72l6.65,3v7.44l-44.66-20.58v-.4l44.66-20.58v7.44Zm-5.89,2.67-17.1,7.68,17.1,7.71Z" transform="translate(103.77 -213.79)"/><path class="cls-1" d="M-80.89,389.24c13.44,0,21.83,8.66,21.83,22.56v12.46h-43.76V411.8C-102.85,397.9-94.43,389.24-80.89,389.24Zm0,6.95c-9.29,0-15.1,6-15.1,15.64v5.59H-65.9v-5.68C-65.9,402.19-71.68,396.19-80.91,396.19Z" transform="translate(103.77 -213.79)"/><path class="cls-1" d="M-96.06,376.07h11.21V359.51H-78v16.56H-65.9V356.88h6.84v26.06h-43.76V356.88h6.76Z" transform="translate(103.77 -213.79)"/><path class="cls-1" d="M-103.77,306.88h44.71v6.86H-83.33l23.54,14.53v.05l-23.57,14.55h24.3v6.87h-44.71v-.52L-72,328.29l-31.81-20.9Z" transform="translate(103.77 -213.79)"/><path class="cls-1" d="M-102.82,298.46v-6.87h43.76v6.87Z" transform="translate(103.77 -213.79)"/><path class="cls-1" d="M-80.91,285.26a22.86,22.86,0,0,1-22.67-22.58,22.13,22.13,0,0,1,6.68-15.2l5.4,4a16.25,16.25,0,0,0-5.1,11.34,16,16,0,0,0,15.71,15.5,15.94,15.94,0,0,0,15.64-15.52c0-4.48-2.23-8.34-5.21-11.35l5.54-4c3.71,3.77,6.56,8.58,6.56,15.09A22.77,22.77,0,0,1-80.91,285.26Z" transform="translate(103.77 -213.79)"/><path class="cls-1" d="M-66.74,244.54l-3.88-5.43a11,11,0,0,0,5.37-9.8c0-4.91-2.36-8.63-5.7-8.63-4,0-6.49,5.76-8.69,10.86s-4.94,10.83-11.81,10.83c-7.16,0-12.16-6.22-12.16-14.09,0-6.24,3-10.91,7.82-12.7l3.53,5.1a8.16,8.16,0,0,0-4.61,7.55c0,4,2.49,7.22,5.59,7.22,3.42,0,4.64-4,6.92-9.37,3-6.92,6.38-12.29,13.27-12.29,7.77,0,12.76,6.73,12.76,15.61C-58.33,236.59-61.69,242.05-66.74,244.54Z" transform="translate(103.77 -213.79)"/></svg>