<svg id="Layer_1" data-name="Layer 1" xmlns="http://www.w3.org/2000/svg" viewBox="0 0 45.28 441.93"><defs><style>.cls-1{fill:#fff;}</style></defs><path class="cls-1" d="M278.09,650.36H289.3V633.8h6.84v16.56h12.11v-19.2h6.84v26.06H271.33V631.16h6.76Z" transform="translate(-270.57 -215.29)"/><path class="cls-1" d="M278.14,605.86v19.85h-6.81V594.92l36.92,19.82V594.92h6.84v30.79Z" transform="translate(-270.57 -215.29)"/><path class="cls-1" d="M278.09,581.32H289.3V564.76h6.84v16.56h12.11V562.13h6.84v26.06H271.33V562.13h6.76Z" transform="translate(-270.57 -215.29)"/><path class="cls-1" d="M315.09,532l-21.17,16.18h21.17V555H271.33v-6.84h21l-21-15v-8l21.47,15.52,22.29-17.07Z" transform="translate(-270.57 -215.29)"/><path class="cls-1" d="M271.33,518.93v-6.86h43.76v6.86Z" transform="translate(-270.57 -215.29)"/><path class="cls-1" d="M278.09,496.78H289.3V480.22h6.84v16.56h12.11V477.59h6.84v26.06H271.33V477.59h6.76Z" transform="translate(-270.57 -215.29)"/><path class="cls-1" d="M308.25,444.06h6.84v26.39H271.33v-6.87h36.92Z" transform="translate(-270.57 -215.29)"/><path class="cls-1" d="M301.76,392.16a13.27,13.27,0,0,1,13.33,13.76v16.37H271.33V410.35c0-7.55,5.43-12.65,11.24-12.65,4.72,0,7.87,3.28,7.87,4.91C290.44,397.7,295,392.16,301.76,392.16ZM278,415.45h10.91l0-5.43c0-3.39-2.3-5.89-5.43-5.89a5.64,5.64,0,0,0-5.45,5.81Zm23.29-16.59c-3.31,0-6.35,2.83-6.35,7.79l0,8.8h13.41v-8.9C308.38,402.61,305.53,398.86,301.3,398.86Z" transform="translate(-270.57 -215.29)"/><path class="cls-1" d="M315.09,362.65l-16.94,11.78v5.37h16.94v6.87l-43.76,0V373.1c0-8.14,6.27-14.82,14.06-14.82a12.81,12.81,0,0,1,12.19,8.66l17.51-12.73Zm-22.64,10.29a7.47,7.47,0,0,0-7.22-7.58,7.31,7.31,0,0,0-7.09,7.58v6.89h14.31Z" transform="translate(-270.57 -215.29)"/><path class="cls-1" d="M293.26,351.68a22.63,22.63,0,1,1,22.53-22.59A22.7,22.7,0,0,1,293.26,351.68Zm-.05-38.3a15.69,15.69,0,1,0,15.63,15.71A15.76,15.76,0,0,0,293.21,313.38Z" transform="translate(-270.57 -215.29)"/><path class="cls-1" d="M271.33,306.67v-7.41l27-8.12-25.16-10v-.27l25.13-10-27-8.09v-7.41l44.17,13.9v.62l-26.39,11.21,26.39,11.05v.62Z" transform="translate(-270.57 -215.29)"/><path class="cls-1" d="M271.22,215.29h44.63v.33l-29.24,28h28.53v6.86H270.57v-.35l29.18-27.93H271.22Z" transform="translate(-270.57 -215.29)"/></svg>