<svg id="Layer_1" data-name="Layer 1" xmlns="http://www.w3.org/2000/svg" viewBox="0 0 45.28 178.29"><defs><style>.cls-1{fill:#fff;}</style></defs><path class="cls-1" d="M-66.74,549.54l-3.88-5.43a11,11,0,0,0,5.37-9.8c0-4.91-2.36-8.63-5.7-8.63-4,0-6.49,5.76-8.69,10.86s-4.94,10.83-11.81,10.83c-7.16,0-12.16-6.21-12.16-14.09,0-6.24,3-10.91,7.82-12.7l3.53,5.1a8.16,8.16,0,0,0-4.61,7.55c0,4,2.49,7.22,5.59,7.22,3.42,0,4.64-4,6.92-9.37,3-6.92,6.38-12.29,13.27-12.29,7.77,0,12.76,6.73,12.76,15.61C-58.33,541.59-61.69,547.05-66.74,549.54Z" transform="translate(103.61 -371.25)"/><path class="cls-1" d="M-59.06,490.21l-21.17,16.18h21.17v6.84h-43.76v-6.84h21l-21-15v-8l21.47,15.53,22.29-17.08Z" transform="translate(103.61 -371.25)"/><path class="cls-1" d="M-102.82,477.51v-6.87h43.76v6.87Z" transform="translate(103.61 -371.25)"/><path class="cls-1" d="M-65.9,436.17h6.84v26.39h-43.76v-6.87H-65.9Z" transform="translate(103.61 -371.25)"/><path class="cls-1" d="M-65.9,404.64h6.84V431h-43.76v-6.87H-65.9Z" transform="translate(103.61 -371.25)"/><path class="cls-1" d="M-66.74,402l-3.88-5.43a11,11,0,0,0,5.37-9.8c0-4.91-2.36-8.63-5.7-8.63-4,0-6.49,5.75-8.69,10.86s-4.94,10.83-11.81,10.83c-7.16,0-12.16-6.22-12.16-14.09,0-6.24,3-10.91,7.82-12.7l3.53,5.1a8.15,8.15,0,0,0-4.61,7.54c0,4,2.49,7.23,5.59,7.23,3.42,0,4.64-4.05,6.92-9.37,3-6.92,6.38-12.3,13.27-12.3,7.77,0,12.76,6.74,12.76,15.61C-58.33,394.06-61.69,399.51-66.74,402Z" transform="translate(103.61 -371.25)"/></svg>