<svg id="Layer_1" data-name="Layer 1" xmlns="http://www.w3.org/2000/svg" viewBox="0 0 1456.77 349.49"><defs><style>.cls-1{fill:#fef7e8;}.cls-2{fill:#fef8ed;}</style></defs><path class="cls-1" d="M1582.71,1002.13v3c-1.74.22-2,1.44-2,2.89q0,6.24,0,12.48c0,6-3.75,9.94-9.61,11.76-4.26,1.33-8-.64-11.94-.34-5.5.41-11.2.55-16.14-1.19-7.85-2.75-15-2.91-22.39.79a1.6,1.6,0,0,1-2.23-.4c-2.26-4.37-7.44-2.56-10.62-5.08a7.64,7.64,0,0,0-4-1.83c-5.57-.58-11.48-.31-15.71-5.12-1-1.1-2.48-.71-3.74-1-6.06-1.56-12.48-1.94-17.89-5.72-1.26-.87-3.14-1-4.77-1.18-7-.67-13.43.46-19.39,4.52-2.82,1.93-5.79,2.89-9.62.75-6.17-3.45-10.76-1.41-13.88,5.05-.5,1-.82,2.18-1.36,3.2-1.28,2.43-2.56,3.83-5.84,2.17-4.53-2.29-9.63-.77-13.12,3-3.09,3.33-10.2,4.31-14.53,2-1.78-.95-15.65,1.42-17,2.9-.11.12-.15.3-.25.43-2,3-4.36,5.25-8.48,5.11-1.86-.07-3.69,1.19-5.5,2.08-3.41,1.7-6.28,4.1-10.62,4.64-3,.37-6.05-1.07-9,.67-6.28,3.71-14,1.74-17.08-4.52-1.75-3.58-3.92-4-7.54-3.62-4.73.48-10.43,2.08-14-1.66s-11.63-2.89-11.83-10.49a8.92,8.92,0,0,0-1.87-.31c-2.45-4.62-7.08-7.28-10.2-11.37-1.83-2.4-2.88-6.17-6.8-6.6-.49.1-1,.15-1.46.29-5.13,1.47-10,3.26-13.25-3.65-1.08-2.27-4.55-5.4-8.13-1.47a3.78,3.78,0,0,1-4.23.6c-2-.76-3.43-.74-4.65,1.21a2.16,2.16,0,0,1-2.68.74c-4.74-1.77-10.07-2.07-14.19-5.35-1.7-1.36-2.49-1.73-3.59.62a16,16,0,0,1-8.81,8,1.85,1.85,0,0,0-2,2c0,.33,0,.66,0,1-3,.1-6.14.07-7,4a2.13,2.13,0,0,1-1,2c-1.57,0-2.93,1-4.75.18-5.69-2.62-8.24-1.07-11.41,4.21-2.25,3.77-2.5,8.46-5.83,11.59-3.86-2.66-6-10.49-12.85-4.37-.23.2-.94-.24-1.43-.23-7.25.22-10.81-7.57-17.71-8.22-.4,0-.73-1.37-1-2.14-1.42-4.2-4.77-4.36-7.89-3-2.19,1-4.49,1.52-6.17.62-6.86-3.66-14.3-1.39-21.41-2.48-8.71-1.33-16-4.54-21.93-10.93-1.33-1.43-2.42-2.37-4.67-1.82-3.85.94-8,3.52-11.54-.86-.56-.68-1.49.53-2.19.57-3.31.21-7.48,2.33-9.71-.75-2.57-3.56-6.74-4.62-9.37-7.75-.87-1-2-2-3.47-1.34-7.92,3.34-16.19,3.35-24.54,2.69-2.54-.2-4.37.41-5.64,3a10.94,10.94,0,0,1-15.08,4.91c-7.5-3.91-12.18-1.81-12,5.76-2.24-1.43-4.49-2.57-6.83-.7-1.44,1.15-3.11,1.13-4.76,1-2.75-.21-4.06.81-3.82,3.7.23,2.65-.67,3.31-3.55,2.74-3.81-.75-6.81,3.91-11,2.37-1.65,4.72-5.79,6.65-9.68,9.1-4.79,3-10.57,2.55-13.72-2.18-1.26-1.91-2.8-2.25-4.67-3-2.72-1.1-6.41.84-8.18-2.27a4.54,4.54,0,0,0-4.4-2.49c-4.1-.14-8.66,1.16-11.38-3.57-.2-.34-1.28-.37-1.89-.26-7.17,1.4-12.79-1-17.62-6.37a11.2,11.2,0,0,0-5.72-3.76c-5.69-1.29-10.1-6.12-16.37-6-1.14,0-1.36-1.19-1.92-2-3.46-5.17-9.32-6.56-14.9-4-2.79,1.26-5.79,2.62-8.34-1a3.36,3.36,0,0,0-5-.26c-2.58,2.77-5.33,1.82-8.27,1.4-1.58-.22-3.08-1.13-4.86-.39-6.46,2.72-11.21.1-16-4.44-4.36-4.14-9.64-7.65-16.22-4.18-4.17,2.2-8.22,4-12.92,1.38-1-.52-1.75.63-2.29,1.49-1.72,2.77-4,2.62-6.43,1.14-2.25-1.38-4.53-1.75-6.32.32s-3.14,5.11-6.14,1.08c-.67-.89-1.76.1-2.21,1.13-.69,1.64-2.07,1.56-3.37,1.11-3-1-6.12-1.38-9.13-2.12-3.9-1-8.7-3.28-12.09,1.82-.66,1-1.65.12-2.45-.62-2.88-2.69-5.85-5-9.62-1.15-.45.47-1.6.43-2.4.34-4.85-.51-9.34-.08-12.66,4.1a1.81,1.81,0,0,1-2.7.13c-2.57-2.08-4.35-1.94-5.75,1.36-.35.81-2.09.92-2.91,1.67-6.86,6.28-17.11,5.28-24.11,11.25-1,.86-2.23.29-3.29-.28-8.12-4.37-17.8-3-26-7a6.2,6.2,0,0,0-4.43,0c-5.58,2.17-11.07,2.94-16.67.15a2.1,2.1,0,0,0-1.46,0c-7.37,2.54-14.8,3.66-22.4,1a2.06,2.06,0,0,0-2.55,1,3.2,3.2,0,0,1-3.41,1.57c-6.52-1.15-11.92.55-15.91,6.05-1.62,2.23-3.16,2.67-6.12,1.36-3.62-1.59-8.38-4.53-11.15,1.79-.15.32-.84.46-1.31.59-3.85,1-7.68,2.26-11.6,2.93-1.86.32-4.81,3-5.71-1.6-.28-1.43-2-1-2.86-.14-2.09,2.17-3.87,2.57-6.32.25-2-1.9-4.41-.13-6.46.62-1.22.44-2.29,1.41-3.69,1.22-6.5-.88-11.93,4.85-18.32,3.28-5.46-1.34-11.66,5-16.55-1.79-.51-.7-2.52-.43-3.84-.45-6.28-.11-12.14-1.33-17.4-5.13-3.29-2.37-7.05-5.23-10.2.54a3.2,3.2,0,0,1-2.48,1.41c-3.42-.3-5.56,1.57-7.71,3.79-1.33,1.37-3.4,2.51-4.49.08-2.2-4.94-3-1.67-4.39.43-4,6.23-8.94,12.42-15.72,14.53a140.58,140.58,0,0,0-14.91,5.49c-3.72,1.64-7.91,2.61-9.38,7.28a2.22,2.22,0,0,1-2.94,1.29c-3.14-1.64-5,.67-7.12,2.08-3.35,2.28-6.63,4.38-8.85,8.25-2.61,4.56-8.8,4.8-12.62,8.16-1.85,1.63-2.71,1.85-3.8-.79-1.27-3-2.86-4.34-7.18-3.06a33.38,33.38,0,0,1-23.21-1.64c-4.22-1.91-6-.43-8.4,2.07-1.49,1.56-2.09,6.55-5.59,1.65-.06-.09-1.44.36-1.58.77-1.15,3.49-2.85,3.06-5,.89a2.52,2.52,0,0,0-3.59-.48c-3,2.29-6.47,1.53-9.63,1.09-2.39-.33-4.25-.19-6,1.35-3,2.67-5.82,1.71-8.55-.32-2.54-1.88-5.19-4.57-8.33-3.63-5.78,1.73-11.51-2.39-17.17.43-1,.5-1.91-.53-2.16-1.55-.76-3-3.53-3.65-5.7-5.08-2.6-1.71-5.65-2.47-8-4.72-4.18-4-8.14-8.87-15.17-6.32-1.15.42-2.14-.54-3.13-1.22-6.68-4.62-13.27-9.63-22.08-4.79a3.9,3.9,0,0,1-3.37-.27c-4.85-3.21-6.4-.08-7.73,3.75-2.48,7.15-12.46,12.83-19.95,11.9-4.05-.5-8.4-1.35-12.24.67-2.58,1.36-4.63.87-7.09,0-2.1-.74-4.16-3.22-6.23-2.1-3.84,2.08-3.4-.41-3.41-2.59,0-7.41-.74-14.82,0-22.23,1.78-1.83,1-4.12,1-6.19,0-56.73.21-113.47-.12-170.21-.06-10.3,1.31-20,5.16-29.44,1.37-.59,2.27-2.12,4-2a4.55,4.55,0,0,0,6,0h2c5.47,1.93,10.74-1.14,12-7l2-1a10.09,10.09,0,0,1,6.69,0c3.66,1.27,6.78-.15,9.32-3h2c3.43,2.74,8.13,1.56,11.77,3.84,1,.65,2.09-.46,2.23-1.83h2c3.6,1.32,7.41,4.06,10.74,3.58,3.65-.54,7.34-.45,10.88-1.13s4.69.26,4.36,3.56c-.31,3.06,1,4.12,4,4s6.05.82,7.93,3.43c2.32,3.23,6.4,2.21,9.28,4.19,1.16.8,2.43-.64,2.67-2.14a8.15,8.15,0,0,0-.77-5.32c-1.8-3.33-1.46-6.19,2.27-7.8,5-2.17,9-1.12,10.77,2.58,1,2.18,3,3.51,4.58,5.2,1.16,1.23,2.52,2.59,4.23,1s-.19-3-.58-4.45c-.64-2.44-4.46-1.39-4.84-4.52l8.46-1.27h0c-.8,3.06,1.67,5.22,2.27,7.94.7,3.12,2.29,6.12,6.66,4.28a2.55,2.55,0,0,1,3.09.93c2.77,3.35,5.72,1.88,8.28-.12,2.94-2.3,5.2-5.54,5.4-9.19.26-4.63,3.23-6.48,6.65-7.59,2.47-.81,3.8-1.68,3.66-4.31-.08-1.66,1.39-2.58,2-3.93h2c3.94,1,7.15,6.42,12,2h2c.45,2.7,2.91,3.26,4.8,3.61,2.15.4,4.7-1,6.72-.38,3.56,1.07,5,.13,6.14-3.28,1.22-3.62,7.24-6.07,9-3.78,2.43,3.22,4.31,1.17,5.62-.18,3.34-3.44,7.3-4.24,11.74-4,1.18.55,2.31,1.2,3.72.64,6.84-2.68,14.3-2.51,21.26-4.62,2.11,6.2,2.63,6.46,8.62,4.33a4.09,4.09,0,0,1,1.45-.3c2.91.13,4.46-.5,3.2-4-.9-2.48.91-3.46,3-3,6,1.46,9.44-4.72,14.87-4.89.28,0,.54-.78.81-1.2,2.19-1.38,4.63-1,7-1,1.22,1.49,3.54.92,4.76,2.88s2.42.5,3.23-.89h2c3,3.2,4.8,2.69,7-2,4.22-.55,8.35-2.1,12.71-1.25a2.54,2.54,0,0,0,2.94-1.31c2.71-4.68,6-8,12.08-5.53a3,3,0,0,0,3.86-1.49c.79-1.81-.72-2.16-2-2.74a2.6,2.6,0,0,1-1.41-3.35c.44-1.47,1.77-1.36,2.9-1.3,3.3.2,6.59.54,9.56,2.15.91.5,1.82,1.09,2.71.23,2.78-2.72,2.75-2.74,5.87.46.74.76,1.37,2.66,2.58,1.45,3.39-3.43,6-5,11.45-2.41,2.75,1.31,10.29,3.35,12.88-3.68.09-.25,1-.08,1.4-.34,3.56-2.5,7.7-1.32,11.52-2,4.16-.77,10,.21,10.21-6.95.07-1.85,2.12-3.18,4.14-2.83,5.32,1,10.73-2.1,16,.5.83.41,1.57-.21,2.21-.77a101.79,101.79,0,0,0,7.77-7.09c4-4.43,7.93-5.31,13.17-4,2.26.56,4.84,1,6.86-.16,8.6-4.93,16.93-3.45,25.2.66,2.18,1.08,4.09,1.13,6-.35,7.12-5.43,15.15-3.16,22.71-2,5.45.82,10.22,2,13.59-3.66.35-.59.84-.75,1.64-.34,3.33,1.74,7.14,1.19,10.45.78,6.27-.77,12.28,2.54,18.48.55a1.65,1.65,0,0,1,1.34.55c4.6,5.52,11.6,3.22,17.34,4.94,7.43,2.23,15.87,1,21.87,7.69.95,1.07,3,1.5,4.62,1.55,3.21.1,5.91,1.48,8.8,2.34,3.17,1,5.32,4,8.78,3.76a18.56,18.56,0,0,1,10.52,2.36,18.5,18.5,0,0,0,7.4,2.51c8.84.38,17.41,1.09,24.94,6.59,2.06,1.51,5.19,2.94,6.6-1.56a2.74,2.74,0,0,1,3.76-1.54c1.47.56,1.83-.13,2.47-1.41,2.06-4,6.69-4.8,9-2.41,4.6,4.7,7.28,4,10.21-1.06.13-.23.59-.27.9-.39,6.78-2.67,14.27-2.23,21.05-4.59,4.29-1.49,8.55-.5,12.79-1,3.83-.46,8.49-2.63,12.15,1.25,2.9,3.07,13.58,3.55,15.41.05,3-5.67,10.4-5.28,13.07-10.85a1.84,1.84,0,0,1,1.28-.72c6.22-.74,11.17-4.33,16.29-7.43,1.94-1.18,3.14-1.46,5.24-.15,4.06,2.51,10.23,3.07,12.77.59,5.08-5,11.3-2.81,16.71-4.74a23.87,23.87,0,0,1,14.49.09c3.52,1.06,8.33,5,12.35-.37.68-.89,2.72.17,4,1.16,4,3.12,7.86,6.43,10.35,11,1,1.91,2.33,1.43,3.76.69a3.08,3.08,0,0,0,3-2h2c4.53-.13,9.55,1.83,13-3,2.44,1.75,4.54.13,6.94-.27,3.57-.6,8.06.59,11-.22,8.09-2.19,11.3,3.71,15.2,7.71,2.82,2.89,5.42,4.72,9.25,4.73a19.53,19.53,0,0,1,6.27,1.46,19.15,19.15,0,0,1,8.76,6.07c4.13,4.94,12.31,2.21,16.4,8.09.66,1,4-.46,5.47,1.77.37.55,1.26,0,1.46-.71,1.3-4.91,2.91-1,4.2-.07,1.79,1.3,3.71,4.23,5.49.8,1.61-3.11,3.1-1.9,4.51-.64,1.88,1.68,3.84,2.81,6.29,2.16,3.48-.93,6.93-2.79,9.7,1.38.49.74,1.57.48,2.24-.11,2-1.76,4.44-1.06,6.72-1.16,5.35-.22,10.33-.61,13.73-6a19.75,19.75,0,0,1,8.67-7.34c1.4-.62,3.39-1.43,3.45-3.29.16-4.85,4-5.65,7.31-6.91s7.58-.56,8.33-5.58c.12-.84,1.36-1,2.15-.84,4.82,1,9.42-.9,13.54-2.37,6.84-2.44,13.24-5.61,20.8-5.8,2.43-.06,5-2.24,7.91-1.93,1.87.19,3-1.29,4.11-2.5,4.94-5.21,10.19-9.44,18.1-6.43,3,1.14,6.5-.36,9.42,1.83.86.65,2.26-.08,3-1.12.52-.7,1.09-1.4,2-.61,3.34,2.94,6.31,1.48,9.45-.51,2-1.26,4.09-.34,6.2.44,4,1.48,8.15,5.12,12.15,3.69,6.69-2.4,13.15.07,19.58-.85a14.41,14.41,0,0,1,9.51,1.49c5.89,3.38,12,5.39,18.86,4.65,1.64-.18,2.71.91,4,1.7,8.16,5,15.56,10.62,26.71,8.71,7.69-1.32,16.28.48,24,3.74,2,.83,4.71,3,5.74,2.39,5.25-3.22,9.37-.14,14,1.29,1.73.54,3.32,1.25,5,1.87A30.9,30.9,0,0,0,1432,751c6-.3,12-4.63,18.08-.17.44.33,1.63,0,2.3-.38,2-1.09,4-.84,6.21-.42,6.54,1.23,12.19,4.77,18.51,6.57,8,2.28,14.51,8.44,23.4,8.79A11.15,11.15,0,0,1,1509,770c1.37,1.87,3.64,1.18,5.6,1.35,2.77.23,5.89-1,8.27.85,3.45,2.71,7.43,3.39,11.5,4.17a17.79,17.79,0,0,1,7.48,3.61c5.63,4.37,11.7,5.68,18.51,3.09,2.88-1.11,5.71-1.4,8.44.77,2,1.62,4.22,3.5,6.64,4.18,6.16,1.76,6.33,6.3,6.29,11.33-.44,65.23.8,130.48-.53,195.72C1581.16,997.27,1580.91,1000.05,1582.71,1002.13Z" transform="translate(-125.95 -719.32)"/><path class="cls-2" d="M232.06,809.28c3.32-.09,6.62-.28,9.43,2.13a4.31,4.31,0,0,0,4.28.49c6.14-2,12.43,1.09,18.62-.52,1.2-.31,2.11.78,2.67,1.89l-8.46,1.27c.38,3.13,4.2,2.08,4.84,4.52.39,1.48,2.35,2.85.58,4.45s-3.07.19-4.23-1c-1.58-1.69-3.56-3-4.58-5.2-1.73-3.7-5.74-4.75-10.77-2.58-3.73,1.61-4.07,4.47-2.27,7.8a8.15,8.15,0,0,1,.77,5.32c-.24,1.5-1.51,2.94-2.67,2.14-2.88-2-7-1-9.28-4.19-1.88-2.61-4.87-3.5-7.93-3.43s-4.32-1-4-4c.33-3.3-.75-4.25-4.36-3.56s-7.23.59-10.88,1.13c-3.33.48-7.14-2.26-10.74-3.58,2-1.95,4.07-2.78,6.61-1,.49.35,1.59.72,1.74.53,3.15-3.82,6.63-.82,10-.63s6.81,1.11,10.2-1.61a7.3,7.3,0,0,1,8.46-.34c.15.72.15,1.7,1.21,1.47C231.63,810.66,231.8,809.79,232.06,809.28Z" transform="translate(-125.95 -719.32)"/><path class="cls-2" d="M267.06,813.27c2.27.52,4.51,1.17,5.87,3.26.46.71.8,1.68,1.75,1.14a2.82,2.82,0,0,0,1.23-2c.07-2.3.65-5.08-.38-6.82-2.29-3.82-.07-6.65,1.82-8.85s5.12-1.59,7.78-.07c3.86,2.2,8.77,1.68,12.31,4.83,1.06.93,1.91.05,2.71-1.08,1.11-1.56,2.18-3.85,4.89-2.43-.58,1.35-2.05,2.27-2,3.93.14,2.63-1.19,3.5-3.66,4.31-3.42,1.11-6.39,3-6.65,7.59-.2,3.65-2.46,6.89-5.4,9.19-2.56,2-5.51,3.47-8.28.12a2.55,2.55,0,0,0-3.09-.93c-4.37,1.84-6-1.16-6.66-4.28C268.73,818.49,266.26,816.33,267.06,813.27Zm24,2.12c0-2.7-1-4.57-3.69-5-1.29-.2-2.5.45-2,1.92.78,2.34.21,5.79,3.42,6.46C291,819.23,290.93,816.92,291,815.39Zm-6.19,4c-.52-1.58-1.52-2.83-3.36-2.91a2,2,0,0,0-2.23,2.1c-.06,2.17,1.47,2.67,3.26,2.68C283.71,821.24,284.85,821.08,284.85,819.36Z" transform="translate(-125.95 -719.32)"/><path class="cls-2" d="M127.08,1029.11c-1.75-1.84-1-4.12-1-6.19q-.07-96.72,0-193.44c0-7.44,0-7.44,7-6.21-3.85,9.45-5.22,19.14-5.16,29.44.33,56.74.17,113.48.12,170.21C128.05,1025,128.86,1027.28,127.08,1029.11Z" transform="translate(-125.95 -719.32)"/><path class="cls-2" d="M390,791.3c1.94-1.25,4.11-2.23,1.69-5.16-1.12-1.36.09-2.63,1.73-2.44,1.18.14,2.5.62,3.27-.32,3.71-4.51,8.16-3.68,12.84-2.11,4.05,1.37,8.45-1.09,12.46,1-.27.42-.53,1.19-.81,1.2-5.43.17-8.85,6.35-14.87,4.89-2.13-.51-3.94.47-3,3,1.26,3.48-.29,4.11-3.2,4a4.09,4.09,0,0,0-1.45.3C392.65,797.76,392.13,797.5,390,791.3Z" transform="translate(-125.95 -719.32)"/><path class="cls-2" d="M321,803.29c5.24.92,9.91-.76,14.44-3.13.15-.07.45-.1.45-.16.39-7,7.47-4.66,10.68-7.7a7.6,7.6,0,0,1,2.11-1.3c1.92-.89,14.78,2.52,16.32,4.28-4.44-.24-8.4.56-11.74,4-1.31,1.35-3.19,3.4-5.62.18-1.74-2.29-7.76.16-9,3.78-1.15,3.41-2.58,4.35-6.14,3.28-2-.6-4.57.78-6.72.38C324,806.55,321.49,806,321,803.29Z" transform="translate(-125.95 -719.32)"/><path class="cls-2" d="M1192.81,1019.12a2.6,2.6,0,0,1-2.54,2.6c-5,0-5.68,3.61-6.39,7.18-1.56,7.93-5.72,9.94-13.06,6.2,3.33-3.13,3.58-7.82,5.83-11.59,3.17-5.28,5.72-6.83,11.41-4.21C1189.88,1020.14,1191.24,1019.16,1192.81,1019.12Z" transform="translate(-125.95 -719.32)"/><path class="cls-2" d="M1280.8,1027.09c-10.74-1.8-16.79-8.19-17-18,3.92.43,5,4.2,6.8,6.6C1273.72,1019.81,1278.35,1022.47,1280.8,1027.09Z" transform="translate(-125.95 -719.32)"/><path class="cls-2" d="M1008.86,741.33c0-1.71.13-3.64,2.2-3.79,3.26-.23,4-2,3-6.07l7.85,6.86C1018.41,743.16,1013.39,741.2,1008.86,741.33Z" transform="translate(-125.95 -719.32)"/><path class="cls-2" d="M177.07,810.27c5.05-2,9.66-.94,14,2-.14,1.37-1.18,2.48-2.23,1.83C185.2,811.83,180.5,813,177.07,810.27Z" transform="translate(-125.95 -719.32)"/><path class="cls-2" d="M159.07,813.27a3.1,3.1,0,0,1,4-2.71c4.1,1.13,8-.16,12-.28-2.54,2.8-5.66,4.22-9.32,3A10.09,10.09,0,0,0,159.07,813.27Z" transform="translate(-125.95 -719.32)"/><path class="cls-2" d="M307,801.28c4.09.16,8.57-2.07,12,2C314.19,807.7,311,802.32,307,801.28Z" transform="translate(-125.95 -719.32)"/><path class="cls-2" d="M145.08,821.27c4.85-.88,8.57-3.69,12-7C155.82,820.13,150.55,823.2,145.08,821.27Z" transform="translate(-125.95 -719.32)"/><path class="cls-2" d="M439,783.31c1.64-3.1,4.57-1.67,7-2C443.81,786,442,786.51,439,783.31Z" transform="translate(-125.95 -719.32)"/><path class="cls-2" d="M429,781.32c3.43-2.43,5.54.47,8,2-.81,1.39-2.11,2.71-3.23.89S430.24,782.81,429,781.32Z" transform="translate(-125.95 -719.32)"/><path class="cls-2" d="M1200.81,1013.12c-.64,4.3-4.68,2.64-7,4C1194.67,1013.19,1197.78,1013.22,1200.81,1013.12Z" transform="translate(-125.95 -719.32)"/><path class="cls-2" d="M137.09,821.27a4.55,4.55,0,0,1,6,0A4.55,4.55,0,0,1,137.09,821.27Z" transform="translate(-125.95 -719.32)"/><path class="cls-2" d="M1003.86,743.33c.46-1.47.39-3.76,3-2A3.08,3.08,0,0,1,1003.86,743.33Z" transform="translate(-125.95 -719.32)"/><path class="cls-2" d="M1202.81,1010.12a1.87,1.87,0,0,1-2,2A1.85,1.85,0,0,1,1202.81,1010.12Z" transform="translate(-125.95 -719.32)"/><path class="cls-1" d="M232.06,809.28c-.26.51-.43,1.38-.79,1.46-1.06.23-1.06-.75-1.21-1.47Z" transform="translate(-125.95 -719.32)"/><path class="cls-1" d="M284.85,819.36c0,1.72-1.14,1.88-2.33,1.87-1.79,0-3.32-.51-3.26-2.68a2,2,0,0,1,2.23-2.1C283.33,816.53,284.33,817.78,284.85,819.36Z" transform="translate(-125.95 -719.32)"/></svg>