<svg id="Layer_1" data-name="Layer 1" xmlns="http://www.w3.org/2000/svg" viewBox="0 0 45.22 171.16"><defs><style>.cls-1{fill:#fff;}</style></defs><path class="cls-1" d="M-102.82,550.6v-7.41l27-8.11-25.16-10v-.27l25.13-10-27-8.09v-7.41l44.17,13.9v.62L-85,525l26.39,11v.63Z" transform="translate(103.58 -379.44)"/><path class="cls-1" d="M-80.89,499.51a22.7,22.7,0,0,1-22.69-22.61,22.75,22.75,0,0,1,22.69-22.64,22.68,22.68,0,0,1,22.53,22.67A22.62,22.62,0,0,1-80.89,499.51Zm0-38.3a15.76,15.76,0,0,0-15.72,15.72,15.72,15.72,0,0,0,15.72,15.66A15.68,15.68,0,0,0-65.3,476.93,15.72,15.72,0,0,0-80.94,461.21Z" transform="translate(103.58 -379.44)"/><path class="cls-1" d="M-59.06,423.91-76,435.69v5.37h16.94v6.87l-43.76,0v-13.6c0-8.15,6.27-14.82,14.06-14.82a12.8,12.8,0,0,1,12.19,8.66l17.51-12.74ZM-81.7,434.2a7.47,7.47,0,0,0-7.22-7.58A7.31,7.31,0,0,0-96,434.2v6.89H-81.7Z" transform="translate(103.58 -379.44)"/><path class="cls-1" d="M-59.06,387.83-80.23,404h21.17v6.84h-43.76V404h21l-21-15v-8l21.47,15.52,22.29-17.07Z" transform="translate(103.58 -379.44)"/></svg>